<svg width="36" height="36" viewBox="0 0 36 36" fill="none" xmlns="http://www.w3.org/2000/svg">
<mask id="mask0" mask-type="alpha" maskUnits="userSpaceOnUse" x="0" y="0" width="36" height="36">
<circle cx="18" cy="18" r="18" fill="#C4C4C4"/>
</mask>
<g mask="url(#mask0)">
<path d="M36 18C36 14.4399 34.9443 10.9598 32.9665 7.99974C30.9886 5.03966 28.1774 2.73256 24.8883 1.37018C21.5992 0.00780181 17.98 -0.348662 14.4884 0.345872C10.9967 1.04041 7.78943 2.75474 5.27209 5.27208C2.75474 7.78943 1.04041 10.9967 0.345873 14.4884C-0.348661 17.98 0.00779898 21.5992 1.37018 24.8883C2.73255 28.1774 5.03966 30.9886 7.99975 32.9665C10.9598 34.9443 14.4399 36 18 36C20.3638 36 22.7045 35.5344 24.8883 34.6298C27.0722 33.7252 29.0565 32.3994 30.7279 30.7279C32.3994 29.0565 33.7253 27.0722 34.6299 24.8883C35.5344 22.7044 36 20.3638 36 18Z" fill="#F6A100"/>
<path d="M36 18C36 15.6362 35.5344 13.2956 34.6298 11.1117C33.7252 8.92784 32.3994 6.94354 30.7279 5.27208C29.0565 3.60062 27.0722 2.27476 24.8883 1.37017C22.7044 0.465585 20.3638 0 18 0V36C20.3638 36 22.7044 35.5345 24.8883 34.6299C27.0722 33.7253 29.0565 32.3994 30.7279 30.728C32.3994 29.0565 33.7252 27.0722 34.6298 24.8883C35.5344 22.7045 36 20.3638 36 18Z" fill="#ED9A00"/>
<path d="M20.6346 22.5383H15.3638V28.3174H20.6346V22.5383Z" fill="#D9A78C"/>
<path d="M14.7241 25.9836C14.7241 25.9836 9.71379 26.7164 8.97261 27.4872C8.33732 28.1585 6.98838 34.5877 6.6792 36.0001H18.0001V26.2589L14.7241 25.9836Z" fill="#C0D0D8"/>
<path d="M21.2744 25.9836C21.2744 25.9836 26.2868 26.7164 27.028 27.4872C27.6633 28.1585 29.0123 34.5877 29.3214 36.0001H18.0005V26.2589L21.2744 25.9836Z" fill="#A7BDC8"/>
<path d="M17.6592 27.2097L16.9922 34.0751L18.0002 35.9746L19.0082 34.0751L18.3411 27.2097H17.6592Z" fill="#14A89A"/>
<path d="M18.8996 27.1523L17.9998 28.052L17.1001 27.1523L17.9998 26.2546L18.8996 27.1523Z" fill="#14A89A"/>
<path d="M18.0005 5.99927C20.5607 5.99927 24.6075 7.45409 24.6075 14.2729C24.6075 18.2096 23.3243 20.7868 22.7652 21.5004C22.2506 22.1569 19.3579 23.5567 18.0005 23.5567V5.99927Z" fill="#EAC0A7"/>
<path d="M25.88 15.9079C25.9922 14.8195 25.4734 13.8538 24.7216 13.75C23.9699 13.6463 23.2668 14.4446 23.1525 15.5352C23.0381 16.6258 23.5591 17.5915 24.3129 17.6931C25.0668 17.7948 25.7678 16.9879 25.88 15.9079Z" fill="#EAC0A7"/>
<path d="M18.0001 5.99927C15.4399 5.99927 11.3931 7.45409 11.3931 14.2729C11.3931 18.2096 12.6764 20.7868 13.2354 21.5004C13.75 22.1569 16.6427 23.5567 18.0001 23.5567V5.99927Z" fill="#F2D7BC"/>
<path d="M10.1202 15.9079C10.008 14.8195 10.5268 13.8538 11.2786 13.75C12.0304 13.6463 12.7334 14.4446 12.8478 15.5352C12.9621 16.6258 12.4412 17.5915 11.6873 17.6931C10.9334 17.7948 10.2325 16.9879 10.1202 15.9079Z" fill="#F2D7BC"/>
<path d="M18.0003 26.2568L15.3236 25.179L14.665 25.8481L15.997 28.8023L18.0003 26.2568Z" fill="white"/>
<path d="M18.0005 26.2568L20.6772 25.179L21.3358 25.8481L20.0038 28.8023L18.0005 26.2568Z" fill="white"/>
<path d="M15.5417 33.0649H12.2021V33.8019H15.5417V33.0649Z" fill="#7F97A3"/>
<path d="M23.8005 33.0649H20.4609V33.8019H23.8005V33.0649Z" fill="#7F97A3"/>
<path d="M12.2722 16.018H12.7296C12.7296 16.018 12.4522 14.2413 13.2654 13.6695V12.5196C13.2654 12.5196 12.952 12.4836 12.952 11.1326C12.952 9.78151 14.5614 8.82009 18.0004 8.82009V4.68433C18.0004 4.68433 11.2007 5.41703 11.2007 10.3533V13.7415C11.4999 13.697 11.8046 13.7732 12.0477 13.9533C12.4332 14.273 12.2722 16.018 12.2722 16.018Z" fill="#8B5F3C"/>
<path d="M23.6628 16.018H23.2075C23.2075 16.018 23.4849 14.2413 22.6696 13.6695V12.5196C22.6696 12.5196 22.9852 12.4836 22.9852 11.1326C22.9852 9.78151 21.3758 8.82009 17.9346 8.82009V4.68433C17.9346 4.68433 24.7365 5.41703 24.7365 10.3533V13.7415C24.5883 13.7194 24.4372 13.7267 24.2918 13.763C24.1465 13.7994 24.0097 13.864 23.8894 13.9533C23.5019 14.273 23.6628 16.018 23.6628 16.018Z" fill="#8B5F3C"/>
<path d="M18.0003 20.6195C19.1926 20.6195 20.1603 20.2257 20.1603 19.7407H15.8403C15.8403 20.2257 16.8081 20.6195 18.0003 20.6195Z" fill="white"/>
</g>
</svg>
